<svg xmlns="http://www.w3.org/2000/svg" xmlns:xlink="http://www.w3.org/1999/xlink" width="175.505" height="269.799" viewBox="0 0 175.505 269.799"><defs><path id="a" d="M0 0h175.505v269.8H0z"/></defs><clipPath id="b"><use xlink:href="#a" overflow="visible"/></clipPath><path clip-path="url(#b)" fill="none" stroke="#7BC5C4" stroke-width="13" stroke-linecap="round" stroke-linejoin="round" stroke-miterlimit="10" d="M29.856 6.5h133.15c3.312 0 6 2.686 6 6v194.8c0 3.312-2.688 6-6 6H29.855"/><path clip-path="url(#b)" fill="none" stroke="#7BC5C4" stroke-width="13" stroke-linecap="round" stroke-linejoin="round" stroke-miterlimit="10" d="M6.5 207.3c0 3.312.677 6 1.512 6h27.343c.835 0 1.512-2.688 1.512-6V12.5c0-3.314-.677-6-1.512-6H8.012c-.835 0-1.512 2.686-1.512 6v194.8zM99.432 263.3l-24.47-20.017L50.49 263.3v-50h48.942zM72.672 55.293h60.53M72.672 88.797h60.53"/></svg>