<svg xmlns="http://www.w3.org/2000/svg" xmlns:xlink="http://www.w3.org/1999/xlink" width="270.849" height="226.988" viewBox="0 0 270.849 226.988"><path fill="none" stroke="#FAD274" stroke-width="13" stroke-linecap="round" stroke-linejoin="round" stroke-miterlimit="10" d="M66.2 145.727h40.742M66.2 117.037h40.742"/><defs><path id="a" d="M0 0h270.85v226.988H0z"/></defs><clipPath id="b"><use xlink:href="#a" overflow="visible"/></clipPath><path clip-path="url(#b)" fill="none" stroke="#FAD274" stroke-width="13" stroke-linejoin="round" stroke-miterlimit="10" d="M233.13 52.852h25.22c3.312 0 6 2.687 6 6v155.636c0 3.313-2.69 6-6 6H12.5c-3.313 0-6-2.687-6-6V58.852c0-3.313 2.687-6 6-6h25.218"/><path clip-path="url(#b)" fill="none" stroke="#FAD274" stroke-width="13" stroke-linejoin="round" stroke-miterlimit="10" d="M135.424 182.723c0 3.313-2.687 6-6 6H43.718c-3.314 0-6-2.687-6-6V12.5c0-3.314 2.686-6 6-6l85.706 10.007c3.313 0 6 2.687 6 6"/><path clip-path="url(#b)" fill="none" stroke="#FAD274" stroke-width="13" stroke-linejoin="round" stroke-miterlimit="10" d="M135.423 22.507c0-3.313 2.687-6 6-6L227.13 6.5c3.312 0 6 2.687 6 6v170.224c0 3.313-2.688 6-6 6h-85.707c-3.313 0-6-2.687-6-6V22.507z"/><path clip-path="url(#b)" fill="none" stroke="#FAD274" stroke-width="13" stroke-linecap="round" stroke-linejoin="round" stroke-miterlimit="10" d="M163.905 145.727h40.742M163.905 117.037h40.742M163.905 88.346h40.742M163.905 59.656h40.742M106.942 82.346c0 3.313-2.687 6-6 6H72.2c-3.314 0-6-2.687-6-6v-16.69c0-3.314 2.686-6 6-6h28.742c3.313 0 6 2.686 6 6v16.69z"/><path clip-path="url(#b)" fill="none" stroke="#FAD274" stroke-width="13" stroke-linejoin="round" stroke-miterlimit="10" d="M102.914 188.723h77.5"/></svg>