<svg xmlns="http://www.w3.org/2000/svg" xmlns:xlink="http://www.w3.org/1999/xlink" width="269.487" height="248.756" viewBox="0 0 269.487 248.756"><defs><path id="a" d="M0 0h269.487v248.756H0z"/></defs><clipPath id="b"><use xlink:href="#a" overflow="visible"/></clipPath><path clip-path="url(#b)" fill="none" stroke="#7BC5C4" stroke-width="13" stroke-linecap="round" stroke-linejoin="round" stroke-miterlimit="10" d="M212.24 82.438h44.747c3.313 0 6 2.687 6 6v147.817c0 3.313-2.687 6-6 6H12.5c-3.313 0-6-2.687-6-6V88.438c0-3.313 2.687-6 6-6h44.747"/><path clip-path="url(#b)" fill="none" stroke="#7BC5C4" stroke-width="13" stroke-linejoin="round" stroke-miterlimit="10" d="M6.5 82.438l128.244 79.91 128.243-79.91M6.5 242.256c2.05-1.486 89.27-104.192 89.27-104.192M262.987 242.256c-2.05-1.486-89.27-104.192-89.27-104.192"/><path clip-path="url(#b)" fill="none" stroke="#7BC5C4" stroke-width="13" stroke-linecap="round" stroke-linejoin="round" stroke-miterlimit="10" d="M95.076 59.704h79.335M95.076 93.208h79.335M57.247 114.06V12.5c0-3.313 2.686-6 6-6H206.24c3.313 0 6 2.687 6 6v101.56"/></svg>