<svg xmlns="http://www.w3.org/2000/svg" xmlns:xlink="http://www.w3.org/1999/xlink" width="325.289" height="220.15" viewBox="0 0 325.289 220.15"><defs><path id="a" d="M0 0h325.29v220.15H0z"/></defs><clipPath id="b"><use xlink:href="#a" overflow="visible"/></clipPath><path clip-path="url(#b)" fill="none" stroke="#7BC5C4" stroke-width="13" stroke-linejoin="round" stroke-miterlimit="10" d="M222.615 169.482H12.5c-3.313 0-6-2.688-6-6V12.5c0-3.313 2.687-6 6-6h265.865c3.313 0 6 2.687 6 6v70.963"/><defs><path id="c" d="M0 0h325.29v220.15H0z"/></defs><clipPath id="d"><use xlink:href="#c" overflow="visible"/></clipPath><path clip-path="url(#d)" fill="none" stroke="#7BC5C4" stroke-width="13" stroke-linecap="round" stroke-linejoin="round" stroke-miterlimit="10" d="M83.317 213.08H207.67"/><defs><path id="e" d="M0 0h325.29v220.15H0z"/></defs><clipPath id="f"><use xlink:href="#e" overflow="visible"/></clipPath><path clip-path="url(#f)" fill="none" stroke="#7BC5C4" stroke-width="13" stroke-linecap="round" stroke-linejoin="round" stroke-miterlimit="10" d="M99.552 213.08l9-43.598"/><defs><path id="g" d="M0 0h325.29v220.15H0z"/></defs><clipPath id="h"><use xlink:href="#g" overflow="visible"/></clipPath><path clip-path="url(#h)" fill="none" stroke="#7BC5C4" stroke-width="13" stroke-linecap="round" stroke-linejoin="round" stroke-miterlimit="10" d="M191.312 213.08l-9-43.598"/><g><defs><path id="i" d="M0 0h325.29v220.15H0z"/></defs><clipPath id="j"><use xlink:href="#i" overflow="visible"/></clipPath><path clip-path="url(#j)" fill="#7BC5C4" d="M150.432 27.482c0 2.76-2.24 5-5 5-2.762 0-5-2.24-5-5s2.238-5 5-5c2.76 0 5 2.24 5 5"/></g><g><defs><path id="k" d="M0 0h325.29v220.15H0z"/></defs><clipPath id="l"><use xlink:href="#k" overflow="visible"/></clipPath><path clip-path="url(#l)" fill="none" stroke="#7BC5C4" stroke-width="13" stroke-linejoin="round" stroke-miterlimit="10" d="M6.5 132.47h216.115"/></g><g><defs><path id="m" d="M0 0h325.29v220.15H0z"/></defs><clipPath id="n"><use xlink:href="#m" overflow="visible"/></clipPath><path clip-path="url(#n)" fill="none" stroke="#7BC5C4" stroke-width="13" stroke-linejoin="round" stroke-miterlimit="10" d="M318.785 210.516c0 1.73-1.402 3.134-3.133 3.134h-69.888c-1.73 0-3.134-1.403-3.134-3.134V106.613c0-1.73 1.402-3.134 3.134-3.134h69.888c1.73 0 3.133 1.4 3.133 3.133v103.903z"/></g><g><defs><path id="o" d="M0 0h325.29v220.15H0z"/></defs><clipPath id="p"><use xlink:href="#o" overflow="visible"/></clipPath><path clip-path="url(#p)" fill="#7BC5C4" d="M285.408 195.98c0 2.597-2.104 4.7-4.7 4.7s-4.7-2.103-4.7-4.7 2.104-4.7 4.7-4.7 4.7 2.104 4.7 4.7"/></g><g><defs><path id="q" d="M0 0h325.29v220.15H0z"/></defs><clipPath id="r"><use xlink:href="#q" overflow="visible"/></clipPath><path clip-path="url(#r)" fill="#7BC5C4" d="M269.785 121.467c0 1.132-.916 2.047-2.046 2.047s-2.047-.915-2.047-2.047c0-1.13.916-2.045 2.046-2.045s2.045.916 2.045 2.045"/></g><g><defs><path id="s" d="M0 0h325.29v220.15H0z"/></defs><clipPath id="t"><use xlink:href="#s" overflow="visible"/></clipPath><path clip-path="url(#t)" fill="#7BC5C4" d="M292.033 121.51c0 1.154-.936 2.09-2.09 2.09h-14.61c-1.153 0-2.09-.936-2.09-2.09 0-1.152.937-2.09 2.09-2.09h14.61c1.155.002 2.09.938 2.09 2.09"/></g></svg>