<svg xmlns="http://www.w3.org/2000/svg" xmlns:xlink="http://www.w3.org/1999/xlink" width="325.288" height="220.15" viewBox="0 0 325.288 220.15"><defs><path id="a" d="M0 0h325.288v220.15H0z"/></defs><clipPath id="b"><use xlink:href="#a" overflow="visible"/></clipPath><path clip-path="url(#b)" fill="none" stroke="#B7B7B7" stroke-width="13" stroke-linejoin="round" stroke-miterlimit="10" d="M222.614 169.482H12.5c-3.313 0-6-2.688-6-6V12.5c0-3.314 2.687-6 6-6h265.864c3.314 0 6 2.686 6 6v70.963"/><path clip-path="url(#b)" fill="none" stroke="#B7B7B7" stroke-width="13" stroke-linecap="round" stroke-linejoin="round" stroke-miterlimit="10" d="M83.317 213.08H207.67M99.552 213.08l9-43.598M191.312 213.08l-9-43.598"/><path clip-path="url(#b)" fill="#B7B7B7" d="M150.432 27.482c0 2.76-2.24 5-5 5-2.762 0-5-2.24-5-5s2.238-5 5-5c2.76 0 5 2.24 5 5"/><path clip-path="url(#b)" fill="none" stroke="#B7B7B7" stroke-width="13" stroke-linejoin="round" stroke-miterlimit="10" d="M6.5 132.47h216.115M318.785 210.516c0 1.73-1.402 3.134-3.133 3.134h-69.888c-1.73 0-3.134-1.403-3.134-3.134V106.613c0-1.73 1.402-3.134 3.134-3.134h69.888c1.73 0 3.133 1.402 3.133 3.133v103.903z"/><path clip-path="url(#b)" fill="#B7B7B7" d="M285.408 195.98c0 2.597-2.104 4.7-4.7 4.7s-4.7-2.103-4.7-4.7c0-2.596 2.104-4.7 4.7-4.7s4.7 2.104 4.7 4.7M269.784 121.467c0 1.13-.916 2.046-2.045 2.046-1.13 0-2.047-.915-2.047-2.046 0-1.13.916-2.045 2.046-2.045 1.128 0 2.044.916 2.044 2.045M292.033 121.51c0 1.155-.936 2.09-2.09 2.09h-14.61c-1.154 0-2.09-.935-2.09-2.09 0-1.152.936-2.088 2.09-2.088h14.61c1.155 0 2.09.936 2.09 2.09"/></svg>