<svg xmlns="http://www.w3.org/2000/svg" xmlns:xlink="http://www.w3.org/1999/xlink" width="158.813" height="223.94" viewBox="0 0 158.813 223.94"><defs><path id="a" d="M0 0h158.812v223.94H0z"/></defs><clipPath id="b"><use xlink:href="#a" overflow="visible"/></clipPath><path clip-path="url(#b)" fill="none" stroke="#7BC5C4" stroke-width="13" stroke-linecap="round" stroke-linejoin="round" stroke-miterlimit="10" d="M152.313 211.44c0 3.313-2.686 6-6 6H12.5c-3.314 0-6-2.687-6-6V12.5c0-3.314 2.686-6 6-6h133.812c3.314 0 6 2.686 6 6v198.94z"/><path clip-path="url(#b)" fill="#7BC5C4" d="M88.406 187.443c0 4.97-4.03 9-9 9s-9-4.03-9-9 4.03-9 9-9 9 4.03 9 9M58.49 31.36c0 2.163-1.752 3.916-3.916 3.916-2.163 0-3.916-1.753-3.916-3.917 0-2.163 1.753-3.917 3.916-3.917 2.164 0 3.917 1.754 3.917 3.916M101.09 31.443c0 2.21-1.79 4-4 4H69.112c-2.21 0-4-1.79-4-4s1.79-4 4-4H97.09c2.21 0 4 1.79 4 4"/></svg>