<svg xmlns="http://www.w3.org/2000/svg" xmlns:xlink="http://www.w3.org/1999/xlink" width="225.657" height="214.239" viewBox="0 0 225.657 214.239"><defs><path id="a" d="M0 0h225.657v214.24H0z"/></defs><clipPath id="b"><use xlink:href="#a" overflow="visible"/></clipPath><path clip-path="url(#b)" fill="none" stroke="#7BC5C4" stroke-width="13" stroke-linecap="round" stroke-linejoin="round" stroke-miterlimit="10" d="M67.16 139.502c-28.79 12.952-51.09 37.774-60.66 68.236M64.634 188.525c-3.27 6.088-5.99 12.515-8.095 19.214M161.022 188.525c3.27 6.088 5.99 12.515 8.096 19.214M219.157 207.74c-9.202-29.286-30.167-53.36-57.356-66.686"/><circle clip-path="url(#b)" fill="none" stroke="#7BC5C4" stroke-width="13" stroke-linecap="round" stroke-linejoin="round" stroke-miterlimit="10" cx="112.831" cy="80.946" r="74.447"/><path clip-path="url(#b)" fill="#7BC5C4" d="M136.24 102.183c0 12.93-10.482 23.41-23.41 23.41-12.93 0-23.41-10.48-23.41-23.41M100.447 73.214c0 6.09-4.938 11.03-11.03 11.03-6.09 0-11.028-4.94-11.028-11.03s4.937-11.03 11.028-11.03c6.09 0 11.03 4.94 11.03 11.03M147.27 73.214c0 6.09-4.94 11.03-11.03 11.03s-11.03-4.94-11.03-11.03 4.94-11.03 11.03-11.03 11.03 4.94 11.03 11.03M49.983 41.027s64.96 14.15 83.46-31.635c0 0-52.375-17.788-83.46 31.635"/><path clip-path="url(#b)" fill="#7BC5C4" d="M120.32 6.927c-5.476-.84-4.008 29.3 59.86 36.033 0 0-26.874-30.97-59.86-36.033"/></svg>