<svg xmlns="http://www.w3.org/2000/svg" xmlns:xlink="http://www.w3.org/1999/xlink" width="233.925" height="233.025" viewBox="0 0 233.925 233.025"><defs><path id="a" d="M0 0h233.925v233.025H0z"/></defs><clipPath id="b"><use xlink:href="#a" overflow="visible"/></clipPath><path clip-path="url(#b)" fill="none" stroke="#7BC5C4" stroke-width="13" stroke-linejoin="round" stroke-miterlimit="10" d="M226.976 188.983c-8.028 0-14.536-6.51-14.536-14.536 0-8.028 6.508-14.536 14.536-14.536.15 0 .3.02.45.023v-28.907c-.15.004-.3.022-.45.022-8.028 0-14.536-6.508-14.536-14.537 0-8.024 6.508-14.534 14.536-14.534.15 0 .3.018.45.023V73.09c-.15.006-.3.024-.45.024-8.028 0-14.536-6.51-14.536-14.536 0-8.03 6.508-14.535 14.536-14.535.15 0 .3.018.45.022V6.5h-37.993c0 8.028-6.51 14.536-14.536 14.536-8.028 0-14.536-6.508-14.536-14.536H131.5c0 8.028-6.51 14.536-14.537 14.536-8.025 0-14.535-6.508-14.535-14.536H73.563c0 8.028-6.51 14.536-14.536 14.536-8.03 0-14.535-6.508-14.535-14.536H6.5v37.565c.152-.004.298-.022.45-.022 8.028 0 14.536 6.506 14.536 14.535 0 8.027-6.508 14.536-14.535 14.536-.152 0-.298-.02-.45-.023V102c.152-.004.298-.023.45-.023 8.028 0 14.536 6.51 14.536 14.535 0 8.03-6.508 14.537-14.535 14.537-.152 0-.298-.02-.45-.023v28.907c.152-.004.298-.022.45-.022 8.028 0 14.536 6.508 14.536 14.536 0 8.026-6.508 14.536-14.535 14.536-.152 0-.298-.02-.45-.022v37.564h37.993c0-8.027 6.506-14.535 14.535-14.535 8.027 0 14.536 6.51 14.536 14.536h28.863c0-8.027 6.51-14.535 14.535-14.535 8.028 0 14.536 6.51 14.536 14.536h28.862c0-8.027 6.508-14.535 14.536-14.535 8.026 0 14.536 6.51 14.536 14.536h37.992V188.96c-.15.005-.297.023-.448.023z"/><path clip-path="url(#b)" fill="none" stroke="#7BC5C4" stroke-width="13" stroke-linejoin="round" stroke-miterlimit="10" d="M56.5 56.5h120.925v120.025H56.5z"/><path clip-path="url(#b)" fill="#7BC5C4" d="M118.98 142.63H96.112V90.397h20.325c3.537 0 6.588.424 9.154 1.27 2.565.847 4.495 1.993 5.79 3.437 2.342 2.69 3.514 5.73 3.514 9.117 0 4.086-1.32 7.125-3.96 9.117-.897.7-1.522 1.134-1.87 1.308-.348.176-.97.462-1.867.86 3.236.698 5.814 2.155 7.733 4.372 1.917 2.217 2.877 4.97 2.877 8.257 0 3.637-1.246 6.85-3.736 9.64-2.89 3.238-7.92 4.856-15.095 4.856m-11.21-31.086h5.53c3.24 0 5.643-.348 7.21-1.047 1.57-.696 2.355-2.204 2.355-4.52s-.723-3.85-2.167-4.596c-1.445-.746-3.886-1.12-7.324-1.12h-5.604v11.284zm0 21.222h7.996c3.338 0 5.84-.41 7.51-1.232 1.67-.822 2.504-2.44 2.504-4.857 0-2.416-.885-4.01-2.652-4.782-1.77-.772-4.596-1.158-8.48-1.158h-6.876v12.03z"/></svg>