<svg xmlns="http://www.w3.org/2000/svg" xmlns:xlink="http://www.w3.org/1999/xlink" width="290.864" height="229.672" viewBox="0 0 290.864 229.672"><defs><path id="a" d="M0 0h290.864v229.672H0z"/></defs><clipPath id="b"><use xlink:href="#a" overflow="visible"/></clipPath><path clip-path="url(#b)" fill="none" stroke="#7BC5C4" stroke-width="13" stroke-linejoin="round" stroke-miterlimit="10" d="M284.364 217.172c0 3.313-2.688 6-6 6H12.5c-3.313 0-6-2.687-6-6V12.5c0-3.313 2.687-6 6-6h265.864c3.313 0 6 2.687 6 6v204.672zM6.5 55.42h278.532"/><path clip-path="url(#b)" fill="#7BC5C4" d="M38.154 30.96c0 3.313-2.686 6-6 6s-6-2.687-6-6 2.686-6 6-6 6 2.687 6 6M58.17 30.96c0 3.313-2.687 6-6 6s-6-2.687-6-6 2.685-6 6-6 6 2.687 6 6M78.185 30.96c0 3.313-2.686 6-6 6s-6-2.687-6-6 2.686-6 6-6 6 2.687 6 6"/><path clip-path="url(#b)" fill="none" stroke="#7BC5C4" stroke-width="13" stroke-linejoin="round" stroke-miterlimit="10" d="M50.01 99.51h45.634v53.684H50.01zM121.593 99.51h45.636v53.684h-45.637z"/><path clip-path="url(#b)" fill="none" stroke="#7BC5C4" stroke-width="13" stroke-linecap="round" stroke-linejoin="round" stroke-miterlimit="10" d="M195.47 99.51h39.384M195.47 126.035h39.384M195.47 152.56h39.384M50.01 179.084h184.844"/></svg>