<?xml version="1.0" encoding="utf-8"?>
<!-- Generator: Adobe Illustrator 15.0.0, SVG Export Plug-In . SVG Version: 6.00 Build 0)  -->
<!DOCTYPE svg PUBLIC "-//W3C//DTD SVG 1.1//EN" "http://www.w3.org/Graphics/SVG/1.1/DTD/svg11.dtd">
<svg version="1.1" id="Layer_1" xmlns="http://www.w3.org/2000/svg" xmlns:xlink="http://www.w3.org/1999/xlink" x="0px" y="0px"
	 width="158.813px" height="223.94px" viewBox="0 0 158.813 223.94" enable-background="new 0 0 158.813 223.94"
	 xml:space="preserve">
<g>
	<defs>
		<rect id="SVGID_1_" width="158.812" height="223.94"/>
	</defs>
	<clipPath id="SVGID_2_">
		<use xlink:href="#SVGID_1_"  overflow="visible"/>
	</clipPath>
	
		<path clip-path="url(#SVGID_2_)" fill="none" stroke="#7BC5C4" stroke-width="13" stroke-linecap="round" stroke-linejoin="round" stroke-miterlimit="10" d="
		M152.313,211.44c0,3.313-2.686,6-6,6H12.5c-3.314,0-6-2.687-6-6V12.5c0-3.314,2.686-6,6-6h133.812c3.314,0,6,2.686,6,6V211.44z"/>
	<path clip-path="url(#SVGID_2_)" fill="#7BC5C4" d="M88.406,187.443c0,4.971-4.029,9-9,9s-9-4.029-9-9s4.029-9,9-9
		S88.406,182.472,88.406,187.443"/>
	<path clip-path="url(#SVGID_2_)" fill="#7BC5C4" d="M58.491,31.359c0,2.164-1.753,3.917-3.917,3.917
		c-2.163,0-3.916-1.753-3.916-3.917c0-2.162,1.753-3.916,3.916-3.916C56.738,27.443,58.491,29.197,58.491,31.359"/>
	<path clip-path="url(#SVGID_2_)" fill="#7BC5C4" d="M101.09,31.443c0,2.209-1.791,4-4,4H69.112c-2.209,0-4-1.791-4-4s1.791-4,4-4
		H97.09C99.299,27.443,101.09,29.234,101.09,31.443"/>
</g>
</svg>
