<?xml version="1.0" encoding="utf-8"?>
<!-- Generator: Adobe Illustrator 15.0.0, SVG Export Plug-In . SVG Version: 6.00 Build 0)  -->
<!DOCTYPE svg PUBLIC "-//W3C//DTD SVG 1.1//EN" "http://www.w3.org/Graphics/SVG/1.1/DTD/svg11.dtd">
<svg version="1.1" id="Layer_1" xmlns="http://www.w3.org/2000/svg" xmlns:xlink="http://www.w3.org/1999/xlink" x="0px" y="0px"
	 width="290.864px" height="229.672px" viewBox="0 0 290.864 229.672" enable-background="new 0 0 290.864 229.672"
	 xml:space="preserve">
<g>
	<defs>
		<rect id="SVGID_1_" width="290.864" height="229.672"/>
	</defs>
	<clipPath id="SVGID_2_">
		<use xlink:href="#SVGID_1_"  overflow="visible"/>
	</clipPath>
	
		<path clip-path="url(#SVGID_2_)" fill="none" stroke="#000000" stroke-width="13" stroke-linejoin="round" stroke-miterlimit="10" d="
		M284.364,217.172c0,3.313-2.688,6-6,6H12.5c-3.313,0-6-2.687-6-6V12.5c0-3.313,2.687-6,6-6h265.864c3.313,0,6,2.687,6,6V217.172z"
		/>
	
		<line clip-path="url(#SVGID_2_)" fill="none" stroke="#000000" stroke-width="13" stroke-linejoin="round" stroke-miterlimit="10" x1="6.5" y1="55.42" x2="285.032" y2="55.42"/>
	<path clip-path="url(#SVGID_2_)" d="M38.154,30.96c0,3.313-2.686,6-6,6s-6-2.687-6-6s2.686-6,6-6S38.154,27.647,38.154,30.96"/>
	<path clip-path="url(#SVGID_2_)" d="M58.169,30.96c0,3.313-2.686,6-6,6s-6-2.687-6-6s2.686-6,6-6S58.169,27.647,58.169,30.96"/>
	<path clip-path="url(#SVGID_2_)" d="M78.185,30.96c0,3.313-2.686,6-6,6s-6-2.687-6-6s2.686-6,6-6S78.185,27.647,78.185,30.96"/>
	
		<rect x="50.009" y="99.509" clip-path="url(#SVGID_2_)" fill="none" stroke="#000000" stroke-width="13" stroke-linejoin="round" stroke-miterlimit="10" width="45.635" height="53.685"/>
	
		<rect x="121.593" y="99.509" clip-path="url(#SVGID_2_)" fill="none" stroke="#000000" stroke-width="13" stroke-linejoin="round" stroke-miterlimit="10" width="45.636" height="53.685"/>
	
		<line clip-path="url(#SVGID_2_)" fill="none" stroke="#000000" stroke-width="13" stroke-linecap="round" stroke-linejoin="round" stroke-miterlimit="10" x1="195.471" y1="99.51" x2="234.854" y2="99.51"/>
	
		<line clip-path="url(#SVGID_2_)" fill="none" stroke="#000000" stroke-width="13" stroke-linecap="round" stroke-linejoin="round" stroke-miterlimit="10" x1="195.471" y1="126.035" x2="234.854" y2="126.035"/>
	
		<line clip-path="url(#SVGID_2_)" fill="none" stroke="#000000" stroke-width="13" stroke-linecap="round" stroke-linejoin="round" stroke-miterlimit="10" x1="195.471" y1="152.559" x2="234.854" y2="152.559"/>
	
		<line clip-path="url(#SVGID_2_)" fill="none" stroke="#000000" stroke-width="13" stroke-linecap="round" stroke-linejoin="round" stroke-miterlimit="10" x1="50.009" y1="179.084" x2="234.854" y2="179.084"/>
</g>
</svg>
