<?xml version="1.0" encoding="utf-8"?>
<!-- Generator: Adobe Illustrator 15.0.0, SVG Export Plug-In . SVG Version: 6.00 Build 0)  -->
<!DOCTYPE svg PUBLIC "-//W3C//DTD SVG 1.1//EN" "http://www.w3.org/Graphics/SVG/1.1/DTD/svg11.dtd">
<svg version="1.1" id="Layer_1" xmlns="http://www.w3.org/2000/svg" xmlns:xlink="http://www.w3.org/1999/xlink" x="0px" y="0px"
	 width="233.925px" height="233.025px" viewBox="0 0 233.925 233.025" enable-background="new 0 0 233.925 233.025"
	 xml:space="preserve">
<g>
	<defs>
		<rect id="SVGID_1_" width="233.925" height="233.025"/>
	</defs>
	<clipPath id="SVGID_2_">
		<use xlink:href="#SVGID_1_"  overflow="visible"/>
	</clipPath>
	
		<path clip-path="url(#SVGID_2_)" fill="none" stroke="#7BC5C4" stroke-width="13" stroke-linejoin="round" stroke-miterlimit="10" d="
		M226.976,188.983c-8.028,0-14.536-6.51-14.536-14.536c0-8.028,6.508-14.536,14.536-14.536c0.151,0,0.299,0.018,0.449,0.022v-28.907
		c-0.15,0.004-0.298,0.022-0.449,0.022c-8.028,0-14.536-6.508-14.536-14.537c0-8.025,6.508-14.535,14.536-14.535
		c0.151,0,0.299,0.018,0.449,0.023V73.091c-0.15,0.005-0.298,0.023-0.449,0.023c-8.028,0-14.536-6.509-14.536-14.536
		c0-8.029,6.508-14.535,14.536-14.535c0.151,0,0.299,0.018,0.449,0.022V6.5h-37.992c0,8.028-6.51,14.536-14.536,14.536
		c-8.028,0-14.536-6.508-14.536-14.536h-28.862c0,8.028-6.508,14.536-14.536,14.536c-8.025,0-14.535-6.508-14.535-14.536H73.563
		c0,8.028-6.509,14.536-14.536,14.536c-8.029,0-14.535-6.508-14.535-14.536H6.5v37.565c0.152-0.004,0.298-0.022,0.451-0.022
		c8.027,0,14.535,6.506,14.535,14.535c0,8.027-6.508,14.536-14.535,14.536c-0.153,0-0.299-0.019-0.451-0.023V102
		c0.152-0.004,0.298-0.023,0.451-0.023c8.027,0,14.535,6.51,14.535,14.535c0,8.029-6.508,14.537-14.535,14.537
		c-0.153,0-0.299-0.019-0.451-0.022v28.907c0.152-0.004,0.298-0.022,0.451-0.022c8.027,0,14.535,6.508,14.535,14.536
		c0,8.026-6.508,14.536-14.535,14.536c-0.153,0-0.299-0.019-0.451-0.022v37.564h37.993c0-8.027,6.506-14.535,14.535-14.535
		c8.027,0,14.536,6.508,14.536,14.535h28.863c0-8.027,6.51-14.535,14.535-14.535c8.028,0,14.536,6.508,14.536,14.535h28.862
		c0-8.027,6.508-14.535,14.536-14.535c8.026,0,14.536,6.508,14.536,14.535h37.992V188.96
		C227.274,188.965,227.127,188.983,226.976,188.983z"/>
	
		<rect x="56.5" y="56.5" clip-path="url(#SVGID_2_)" fill="none" stroke="#7BC5C4" stroke-width="13" stroke-linejoin="round" stroke-miterlimit="10" width="120.925" height="120.025"/>
	<path clip-path="url(#SVGID_2_)" fill="#7BC5C4" d="M118.979,142.63H96.113V90.397h20.325c3.537,0,6.588,0.424,9.154,1.269
		c2.565,0.848,4.495,1.994,5.791,3.438c2.341,2.69,3.513,5.729,3.513,9.117c0,4.085-1.321,7.124-3.961,9.116
		c-0.896,0.699-1.521,1.134-1.868,1.308c-0.349,0.176-0.972,0.462-1.868,0.859c3.237,0.699,5.815,2.156,7.734,4.373
		c1.917,2.217,2.877,4.969,2.877,8.257c0,3.637-1.246,6.851-3.736,9.64C131.185,141.012,126.153,142.63,118.979,142.63
		 M107.771,111.544h5.529c3.239,0,5.643-0.348,7.211-1.047c1.569-0.696,2.354-2.204,2.354-4.52s-0.723-3.849-2.167-4.596
		c-1.445-0.747-3.886-1.121-7.324-1.121h-5.604V111.544z M107.771,132.766h7.995c3.338,0,5.841-0.41,7.511-1.232
		c1.668-0.822,2.503-2.44,2.503-4.857c0-2.416-0.885-4.01-2.652-4.782c-1.77-0.772-4.596-1.158-8.481-1.158h-6.875V132.766z"/>
</g>
</svg>
