<?xml version="1.0" encoding="utf-8"?>
<!-- Generator: Adobe Illustrator 15.0.0, SVG Export Plug-In . SVG Version: 6.00 Build 0)  -->
<!DOCTYPE svg PUBLIC "-//W3C//DTD SVG 1.1//EN" "http://www.w3.org/Graphics/SVG/1.1/DTD/svg11.dtd">
<svg version="1.1" id="Layer_1" xmlns="http://www.w3.org/2000/svg" xmlns:xlink="http://www.w3.org/1999/xlink" x="0px" y="0px"
	 width="225.657px" height="214.239px" viewBox="0 0 225.657 214.239" enable-background="new 0 0 225.657 214.239"
	 xml:space="preserve">
<g>
	<defs>
		<rect id="SVGID_1_" width="225.657" height="214.239"/>
	</defs>
	<clipPath id="SVGID_2_">
		<use xlink:href="#SVGID_1_"  overflow="visible"/>
	</clipPath>
	
		<path clip-path="url(#SVGID_2_)" fill="none" stroke="#7BC5C4" stroke-width="13" stroke-linecap="round" stroke-linejoin="round" stroke-miterlimit="10" d="
		M67.161,139.502c-28.792,12.952-51.09,37.774-60.661,68.236"/>
	
		<path clip-path="url(#SVGID_2_)" fill="none" stroke="#7BC5C4" stroke-width="13" stroke-linecap="round" stroke-linejoin="round" stroke-miterlimit="10" d="
		M64.634,188.525c-3.27,6.088-5.99,12.515-8.095,19.214"/>
	
		<path clip-path="url(#SVGID_2_)" fill="none" stroke="#7BC5C4" stroke-width="13" stroke-linecap="round" stroke-linejoin="round" stroke-miterlimit="10" d="
		M161.022,188.525c3.271,6.088,5.99,12.515,8.096,19.214"/>
	
		<path clip-path="url(#SVGID_2_)" fill="none" stroke="#7BC5C4" stroke-width="13" stroke-linecap="round" stroke-linejoin="round" stroke-miterlimit="10" d="
		M219.157,207.739c-9.202-29.285-30.167-53.36-57.356-66.685"/>
	
		<circle clip-path="url(#SVGID_2_)" fill="none" stroke="#7BC5C4" stroke-width="13" stroke-linecap="round" stroke-linejoin="round" stroke-miterlimit="10" cx="112.831" cy="80.946" r="74.447"/>
	<path clip-path="url(#SVGID_2_)" fill="#7BC5C4" d="M136.239,102.183c0,12.929-10.481,23.41-23.41,23.41
		c-12.929,0-23.41-10.481-23.41-23.41"/>
	<path clip-path="url(#SVGID_2_)" fill="#7BC5C4" d="M100.447,73.214c0,6.091-4.938,11.029-11.029,11.029
		c-6.091,0-11.029-4.938-11.029-11.029s4.938-11.029,11.029-11.029C95.509,62.185,100.447,67.123,100.447,73.214"/>
	<path clip-path="url(#SVGID_2_)" fill="#7BC5C4" d="M147.269,73.214c0,6.091-4.938,11.029-11.029,11.029
		s-11.029-4.938-11.029-11.029s4.938-11.029,11.029-11.029S147.269,67.123,147.269,73.214"/>
	<path clip-path="url(#SVGID_2_)" fill="#7BC5C4" d="M49.983,41.027c0,0,64.961,14.149,83.461-31.635
		C133.444,9.393,81.068-8.396,49.983,41.027"/>
	<path clip-path="url(#SVGID_2_)" fill="#7BC5C4" d="M120.32,6.927c-5.476-0.841-4.008,29.301,59.859,36.033
		C180.18,42.96,153.306,11.991,120.32,6.927"/>
</g>
</svg>
