<?xml version="1.0" encoding="utf-8"?>
<!-- Generator: Adobe Illustrator 15.0.0, SVG Export Plug-In . SVG Version: 6.00 Build 0)  -->
<!DOCTYPE svg PUBLIC "-//W3C//DTD SVG 1.1//EN" "http://www.w3.org/Graphics/SVG/1.1/DTD/svg11.dtd">
<svg version="1.1" id="Layer_1" xmlns="http://www.w3.org/2000/svg" xmlns:xlink="http://www.w3.org/1999/xlink" x="0px" y="0px"
	 width="325.288px" height="220.15px" viewBox="0 0 325.288 220.15" enable-background="new 0 0 325.288 220.15"
	 xml:space="preserve">
<g>
	<defs>
		<rect id="SVGID_1_" width="325.288" height="220.15"/>
	</defs>
	<clipPath id="SVGID_2_">
		<use xlink:href="#SVGID_1_"  overflow="visible"/>
	</clipPath>
	
		<path clip-path="url(#SVGID_2_)" fill="none" stroke="#B7B7B7" stroke-width="13" stroke-linejoin="round" stroke-miterlimit="10" d="
		M222.614,169.482H12.5c-3.313,0-6-2.688-6-6V12.5c0-3.314,2.687-6,6-6h265.864c3.314,0,6,2.686,6,6v70.963"/>
	
		<line clip-path="url(#SVGID_2_)" fill="none" stroke="#B7B7B7" stroke-width="13" stroke-linecap="round" stroke-linejoin="round" stroke-miterlimit="10" x1="83.317" y1="213.08" x2="207.67" y2="213.08"/>
	
		<line clip-path="url(#SVGID_2_)" fill="none" stroke="#B7B7B7" stroke-width="13" stroke-linecap="round" stroke-linejoin="round" stroke-miterlimit="10" x1="99.552" y1="213.08" x2="108.552" y2="169.482"/>
	
		<line clip-path="url(#SVGID_2_)" fill="none" stroke="#B7B7B7" stroke-width="13" stroke-linecap="round" stroke-linejoin="round" stroke-miterlimit="10" x1="191.312" y1="213.08" x2="182.312" y2="169.482"/>
	<path clip-path="url(#SVGID_2_)" fill="#B7B7B7" d="M150.432,27.482c0,2.761-2.239,5-5,5c-2.762,0-5-2.239-5-5s2.238-5,5-5
		C148.193,22.482,150.432,24.721,150.432,27.482"/>
	
		<line clip-path="url(#SVGID_2_)" fill="none" stroke="#B7B7B7" stroke-width="13" stroke-linejoin="round" stroke-miterlimit="10" x1="6.5" y1="132.469" x2="222.615" y2="132.469"/>
	
		<path clip-path="url(#SVGID_2_)" fill="none" stroke="#B7B7B7" stroke-width="13" stroke-linejoin="round" stroke-miterlimit="10" d="
		M318.785,210.516c0,1.73-1.402,3.134-3.133,3.134h-69.888c-1.731,0-3.134-1.403-3.134-3.134V106.613
		c0-1.731,1.402-3.134,3.134-3.134h69.888c1.73,0,3.133,1.403,3.133,3.134V210.516z"/>
	<path clip-path="url(#SVGID_2_)" fill="#B7B7B7" d="M285.408,195.981c0,2.596-2.104,4.7-4.7,4.7s-4.7-2.104-4.7-4.7
		c0-2.597,2.104-4.7,4.7-4.7S285.408,193.384,285.408,195.981"/>
	<path clip-path="url(#SVGID_2_)" fill="#B7B7B7" d="M269.784,121.467c0,1.131-0.916,2.046-2.045,2.046
		c-1.13,0-2.046-0.915-2.046-2.046c0-1.129,0.916-2.045,2.046-2.045C268.868,119.422,269.784,120.338,269.784,121.467"/>
	<path clip-path="url(#SVGID_2_)" fill="#B7B7B7" d="M292.033,121.511c0,1.154-0.936,2.089-2.09,2.089h-14.611
		c-1.153,0-2.089-0.935-2.089-2.089c0-1.153,0.936-2.089,2.089-2.089h14.611C291.098,119.422,292.033,120.358,292.033,121.511"/>
</g>
</svg>
