<?xml version="1.0" encoding="utf-8"?>
<!-- Generator: Adobe Illustrator 15.0.0, SVG Export Plug-In . SVG Version: 6.00 Build 0)  -->
<!DOCTYPE svg PUBLIC "-//W3C//DTD SVG 1.1//EN" "http://www.w3.org/Graphics/SVG/1.1/DTD/svg11.dtd">
<svg version="1.1" id="Layer_1" xmlns="http://www.w3.org/2000/svg" xmlns:xlink="http://www.w3.org/1999/xlink" x="0px" y="0px"
	 width="269.487px" height="248.756px" viewBox="0 0 269.487 248.756" enable-background="new 0 0 269.487 248.756"
	 xml:space="preserve">
<g>
	<defs>
		<rect id="SVGID_1_" width="269.487" height="248.756"/>
	</defs>
	<clipPath id="SVGID_2_">
		<use xlink:href="#SVGID_1_"  overflow="visible"/>
	</clipPath>
	
		<path clip-path="url(#SVGID_2_)" fill="none" stroke="#B7B7B7" stroke-width="13" stroke-linecap="round" stroke-linejoin="round" stroke-miterlimit="10" d="
		M212.239,82.438h44.748c3.313,0,6,2.687,6,6v147.817c0,3.313-2.687,6-6,6H12.5c-3.313,0-6-2.687-6-6V88.438c0-3.313,2.687-6,6-6
		h44.747"/>
	
		<polyline clip-path="url(#SVGID_2_)" fill="none" stroke="#B7B7B7" stroke-width="13" stroke-linejoin="round" stroke-miterlimit="10" points="
		6.5,82.438 134.744,162.348 262.987,82.438 	"/>
	
		<path clip-path="url(#SVGID_2_)" fill="none" stroke="#B7B7B7" stroke-width="13" stroke-linejoin="round" stroke-miterlimit="10" d="
		M6.5,242.256c2.051-1.486,89.271-104.192,89.271-104.192"/>
	
		<path clip-path="url(#SVGID_2_)" fill="none" stroke="#B7B7B7" stroke-width="13" stroke-linejoin="round" stroke-miterlimit="10" d="
		M262.987,242.256c-2.051-1.486-89.271-104.192-89.271-104.192"/>
	
		<line clip-path="url(#SVGID_2_)" fill="none" stroke="#B7B7B7" stroke-width="13" stroke-linecap="round" stroke-linejoin="round" stroke-miterlimit="10" x1="95.076" y1="59.704" x2="174.411" y2="59.704"/>
	
		<line clip-path="url(#SVGID_2_)" fill="none" stroke="#B7B7B7" stroke-width="13" stroke-linecap="round" stroke-linejoin="round" stroke-miterlimit="10" x1="95.076" y1="93.208" x2="174.411" y2="93.208"/>
	
		<path clip-path="url(#SVGID_2_)" fill="none" stroke="#B7B7B7" stroke-width="13" stroke-linecap="round" stroke-linejoin="round" stroke-miterlimit="10" d="
		M57.247,114.059V12.5c0-3.313,2.686-6,6-6H206.24c3.313,0,6,2.687,6,6v101.56"/>
</g>
</svg>
