<?xml version="1.0" encoding="utf-8"?>
<!-- Generator: Adobe Illustrator 15.0.0, SVG Export Plug-In . SVG Version: 6.00 Build 0)  -->
<!DOCTYPE svg PUBLIC "-//W3C//DTD SVG 1.1//EN" "http://www.w3.org/Graphics/SVG/1.1/DTD/svg11.dtd">
<svg version="1.1" id="Layer_1" xmlns="http://www.w3.org/2000/svg" xmlns:xlink="http://www.w3.org/1999/xlink" x="0px" y="0px"
	 width="175.505px" height="269.799px" viewBox="0 0 175.505 269.799" enable-background="new 0 0 175.505 269.799"
	 xml:space="preserve">
<g>
	<defs>
		<rect id="SVGID_1_" width="175.505" height="269.799"/>
	</defs>
	<clipPath id="SVGID_2_">
		<use xlink:href="#SVGID_1_"  overflow="visible"/>
	</clipPath>
	
		<path clip-path="url(#SVGID_2_)" fill="none" stroke="#7BC5C4" stroke-width="13" stroke-linecap="round" stroke-linejoin="round" stroke-miterlimit="10" d="
		M29.856,6.5h133.149c3.313,0,6,2.686,6,6v194.799c0,3.313-2.687,6-6,6H29.856"/>
	
		<path clip-path="url(#SVGID_2_)" fill="none" stroke="#7BC5C4" stroke-width="13" stroke-linecap="round" stroke-linejoin="round" stroke-miterlimit="10" d="
		M6.5,207.299c0,3.313,0.677,6,1.512,6h27.343c0.835,0,1.512-2.687,1.512-6V12.5c0-3.314-0.677-6-1.512-6H8.012
		c-0.835,0-1.512,2.686-1.512,6V207.299z"/>
	
		<polygon clip-path="url(#SVGID_2_)" fill="none" stroke="#7BC5C4" stroke-width="13" stroke-linecap="round" stroke-linejoin="round" stroke-miterlimit="10" points="
		99.432,263.299 74.961,243.283 50.49,263.299 50.49,213.299 99.432,213.299 	"/>
	
		<line clip-path="url(#SVGID_2_)" fill="none" stroke="#7BC5C4" stroke-width="13" stroke-linecap="round" stroke-linejoin="round" stroke-miterlimit="10" x1="72.672" y1="55.293" x2="133.201" y2="55.293"/>
	
		<line clip-path="url(#SVGID_2_)" fill="none" stroke="#7BC5C4" stroke-width="13" stroke-linecap="round" stroke-linejoin="round" stroke-miterlimit="10" x1="72.672" y1="88.797" x2="133.201" y2="88.797"/>
</g>
</svg>
