<?xml version="1.0" encoding="utf-8"?>
<!-- Generator: Adobe Illustrator 15.0.0, SVG Export Plug-In . SVG Version: 6.00 Build 0)  -->
<!DOCTYPE svg PUBLIC "-//W3C//DTD SVG 1.1//EN" "http://www.w3.org/Graphics/SVG/1.1/DTD/svg11.dtd">
<svg version="1.1" id="Layer_1" xmlns="http://www.w3.org/2000/svg" xmlns:xlink="http://www.w3.org/1999/xlink" x="0px" y="0px"
	 width="270.849px" height="226.988px" viewBox="0 0 270.849 226.988" enable-background="new 0 0 270.849 226.988"
	 xml:space="preserve">
<line fill="none" stroke="#FAD274" stroke-width="13" stroke-linecap="round" stroke-linejoin="round" stroke-miterlimit="10" x1="66.2" y1="145.727" x2="106.942" y2="145.727"/>
<line fill="none" stroke="#FAD274" stroke-width="13" stroke-linecap="round" stroke-linejoin="round" stroke-miterlimit="10" x1="66.2" y1="117.037" x2="106.942" y2="117.037"/>
<g>
	<defs>
		<rect id="SVGID_1_" width="270.849" height="226.988"/>
	</defs>
	<clipPath id="SVGID_2_">
		<use xlink:href="#SVGID_1_"  overflow="visible"/>
	</clipPath>
	
		<path clip-path="url(#SVGID_2_)" fill="none" stroke="#FAD274" stroke-width="13" stroke-linejoin="round" stroke-miterlimit="10" d="
		M233.129,52.852h25.22c3.313,0,6,2.687,6,6v155.636c0,3.313-2.688,6-6,6H12.5c-3.313,0-6-2.687-6-6V58.852c0-3.313,2.687-6,6-6
		h25.218"/>
	
		<path clip-path="url(#SVGID_2_)" fill="none" stroke="#FAD274" stroke-width="13" stroke-linejoin="round" stroke-miterlimit="10" d="
		M135.424,182.723c0,3.313-2.687,6-6,6H43.718c-3.314,0-6-2.687-6-6V12.499c0-3.313,2.686-6,6-6l85.706,10.008c3.313,0,6,2.687,6,6"
		/>
	
		<path clip-path="url(#SVGID_2_)" fill="none" stroke="#FAD274" stroke-width="13" stroke-linejoin="round" stroke-miterlimit="10" d="
		M135.423,22.507c0-3.313,2.687-6,6-6L227.129,6.5c3.313,0,6,2.687,6,6v170.224c0,3.313-2.687,6-6,6h-85.706c-3.313,0-6-2.687-6-6
		V22.507z"/>
	
		<line clip-path="url(#SVGID_2_)" fill="none" stroke="#FAD274" stroke-width="13" stroke-linecap="round" stroke-linejoin="round" stroke-miterlimit="10" x1="163.905" y1="145.727" x2="204.647" y2="145.727"/>
	
		<line clip-path="url(#SVGID_2_)" fill="none" stroke="#FAD274" stroke-width="13" stroke-linecap="round" stroke-linejoin="round" stroke-miterlimit="10" x1="163.905" y1="117.037" x2="204.647" y2="117.037"/>
	
		<line clip-path="url(#SVGID_2_)" fill="none" stroke="#FAD274" stroke-width="13" stroke-linecap="round" stroke-linejoin="round" stroke-miterlimit="10" x1="163.905" y1="88.346" x2="204.647" y2="88.346"/>
	
		<line clip-path="url(#SVGID_2_)" fill="none" stroke="#FAD274" stroke-width="13" stroke-linecap="round" stroke-linejoin="round" stroke-miterlimit="10" x1="163.905" y1="59.656" x2="204.647" y2="59.656"/>
	
		<path clip-path="url(#SVGID_2_)" fill="none" stroke="#FAD274" stroke-width="13" stroke-linecap="round" stroke-linejoin="round" stroke-miterlimit="10" d="
		M106.942,82.346c0,3.313-2.687,6-6,6H72.2c-3.314,0-6-2.687-6-6v-16.69c0-3.314,2.686-6,6-6h28.742c3.313,0,6,2.686,6,6V82.346z"/>
	
		<line clip-path="url(#SVGID_2_)" fill="none" stroke="#FAD274" stroke-width="13" stroke-linejoin="round" stroke-miterlimit="10" x1="102.914" y1="188.723" x2="180.414" y2="188.723"/>
</g>
</svg>
