<?xml version="1.0" encoding="utf-8"?>
<!-- Generator: Adobe Illustrator 15.0.0, SVG Export Plug-In . SVG Version: 6.00 Build 0)  -->
<!DOCTYPE svg PUBLIC "-//W3C//DTD SVG 1.1//EN" "http://www.w3.org/Graphics/SVG/1.1/DTD/svg11.dtd">
<svg version="1.1" id="Layer_1" xmlns="http://www.w3.org/2000/svg" xmlns:xlink="http://www.w3.org/1999/xlink" x="0px" y="0px"
	 width="325.289px" height="220.15px" viewBox="0 0 325.289 220.15" enable-background="new 0 0 325.289 220.15"
	 xml:space="preserve">
<g>
	<g>
		<defs>
			<rect id="SVGID_2_" y="0" width="325.289" height="220.15"/>
		</defs>
		<clipPath id="SVGID_3_">
			<use xlink:href="#SVGID_2_"  overflow="visible"/>
		</clipPath>
		
			<path clip-path="url(#SVGID_3_)" fill="none" stroke="#7BC5C4" stroke-width="13" stroke-linejoin="round" stroke-miterlimit="10" d="
			M222.615,169.482H12.5c-3.313,0-6-2.688-6-6V12.5c0-3.313,2.687-6,6-6h265.865c3.313,0,6,2.687,6,6v70.963"/>
	</g>
	<g>
		<defs>
			<rect id="SVGID_4_" y="0" width="325.289" height="220.15"/>
		</defs>
		<clipPath id="SVGID_5_">
			<use xlink:href="#SVGID_4_"  overflow="visible"/>
		</clipPath>
		
			<line clip-path="url(#SVGID_5_)" fill="none" stroke="#7BC5C4" stroke-width="13" stroke-linecap="round" stroke-linejoin="round" stroke-miterlimit="10" x1="83.317" y1="213.08" x2="207.669" y2="213.08"/>
	</g>
	<g>
		<defs>
			<rect id="SVGID_6_" y="0" width="325.289" height="220.15"/>
		</defs>
		<clipPath id="SVGID_7_">
			<use xlink:href="#SVGID_6_"  overflow="visible"/>
		</clipPath>
		
			<line clip-path="url(#SVGID_7_)" fill="none" stroke="#7BC5C4" stroke-width="13" stroke-linecap="round" stroke-linejoin="round" stroke-miterlimit="10" x1="99.552" y1="213.08" x2="108.552" y2="169.482"/>
	</g>
	<g>
		<defs>
			<rect id="SVGID_8_" y="0" width="325.289" height="220.15"/>
		</defs>
		<clipPath id="SVGID_9_">
			<use xlink:href="#SVGID_8_"  overflow="visible"/>
		</clipPath>
		
			<line clip-path="url(#SVGID_9_)" fill="none" stroke="#7BC5C4" stroke-width="13" stroke-linecap="round" stroke-linejoin="round" stroke-miterlimit="10" x1="191.312" y1="213.08" x2="182.312" y2="169.482"/>
	</g>
	<g>
		<defs>
			<rect id="SVGID_10_" y="0" width="325.289" height="220.15"/>
		</defs>
		<clipPath id="SVGID_11_">
			<use xlink:href="#SVGID_10_"  overflow="visible"/>
		</clipPath>
		<path clip-path="url(#SVGID_11_)" fill="#7BC5C4" d="M150.432,27.482c0,2.761-2.239,5-5,5c-2.762,0-5-2.239-5-5s2.238-5,5-5
			C148.193,22.482,150.432,24.721,150.432,27.482"/>
	</g>
	<g>
		<defs>
			<rect id="SVGID_12_" y="0" width="325.289" height="220.15"/>
		</defs>
		<clipPath id="SVGID_13_">
			<use xlink:href="#SVGID_12_"  overflow="visible"/>
		</clipPath>
		
			<line clip-path="url(#SVGID_13_)" fill="none" stroke="#7BC5C4" stroke-width="13" stroke-linejoin="round" stroke-miterlimit="10" x1="6.5" y1="132.469" x2="222.615" y2="132.469"/>
	</g>
	<g>
		<defs>
			<rect id="SVGID_14_" y="0" width="325.289" height="220.15"/>
		</defs>
		<clipPath id="SVGID_15_">
			<use xlink:href="#SVGID_14_"  overflow="visible"/>
		</clipPath>
		
			<path clip-path="url(#SVGID_15_)" fill="none" stroke="#7BC5C4" stroke-width="13" stroke-linejoin="round" stroke-miterlimit="10" d="
			M318.785,210.516c0,1.729-1.402,3.134-3.133,3.134h-69.888c-1.731,0-3.134-1.403-3.134-3.134V106.613
			c0-1.731,1.402-3.134,3.134-3.134h69.888c1.73,0,3.133,1.402,3.133,3.134V210.516z"/>
	</g>
	<g>
		<defs>
			<rect id="SVGID_16_" y="0" width="325.289" height="220.15"/>
		</defs>
		<clipPath id="SVGID_17_">
			<use xlink:href="#SVGID_16_"  overflow="visible"/>
		</clipPath>
		<path clip-path="url(#SVGID_17_)" fill="#7BC5C4" d="M285.408,195.981c0,2.596-2.104,4.7-4.699,4.7
			c-2.597,0-4.701-2.104-4.701-4.7c0-2.598,2.104-4.7,4.701-4.7C283.304,191.281,285.408,193.384,285.408,195.981"/>
	</g>
	<g>
		<defs>
			<rect id="SVGID_18_" y="0" width="325.289" height="220.15"/>
		</defs>
		<clipPath id="SVGID_19_">
			<use xlink:href="#SVGID_18_"  overflow="visible"/>
		</clipPath>
		<path clip-path="url(#SVGID_19_)" fill="#7BC5C4" d="M269.785,121.467c0,1.132-0.916,2.047-2.046,2.047s-2.046-0.915-2.046-2.047
			c0-1.129,0.916-2.045,2.046-2.045S269.785,120.338,269.785,121.467"/>
	</g>
	<g>
		<defs>
			<rect id="SVGID_20_" y="0" width="325.289" height="220.15"/>
		</defs>
		<clipPath id="SVGID_21_">
			<use xlink:href="#SVGID_20_"  overflow="visible"/>
		</clipPath>
		<path clip-path="url(#SVGID_21_)" fill="#7BC5C4" d="M292.033,121.51c0,1.154-0.936,2.09-2.09,2.09h-14.611
			c-1.152,0-2.088-0.936-2.088-2.09c0-1.152,0.936-2.089,2.088-2.089h14.611C291.098,119.422,292.033,120.358,292.033,121.51"/>
	</g>
	<g display="none">
		
			<rect id="SVGID_1_" y="0" display="inline" fill="none" stroke="#7BC5C4" stroke-miterlimit="10" width="325.289" height="220.15"/>
	</g>
</g>
</svg>
